<svg width="89" height="53" fill="none" xmlns="http://www.w3.org/2000/svg"><path d="M62.824 0A25.936 25.936 0 0 0 44.54 7.744a26.524 26.524 0 0 0-7.613 18.295 26.538 26.538 0 0 0 7.157 18.482l8.88-8.981a13.762 13.762 0 0 1-3.476-9.51 13.746 13.746 0 0 1 3.957-9.316 13.446 13.446 0 0 1 9.214-3.998 13.43 13.43 0 0 1 9.403 3.519l8.888-8.997A25.923 25.923 0 0 0 62.824.001ZM26.218.038A25.924 25.924 0 0 0 8.093 7.281l8.866 8.967a13.423 13.423 0 0 1 9.408-3.528 13.438 13.438 0 0 1 9.218 4.005l6.43-11.152-.369-.3A25.89 25.89 0 0 0 26.218.036Zm55.66 8.146-8.86 8.967a13.761 13.761 0 0 1 3.512 9.522 13.747 13.747 0 0 1-3.956 9.342 13.446 13.446 0 0 1-9.238 4 13.431 13.431 0 0 1-9.415-3.552l-8.925 9.026a25.932 25.932 0 0 0 18.288 7.197 25.95 25.95 0 0 0 18.076-7.727 26.535 26.535 0 0 0 7.637-18.281 26.552 26.552 0 0 0-7.12-18.494ZM7.164 8.22A26.536 26.536 0 0 0 0 26.372a26.535 26.535 0 0 0 7.157 18.156l8.89-8.99a13.75 13.75 0 0 1-3.505-9.169 13.75 13.75 0 0 1 3.49-9.175L7.164 8.22Zm28.42 27.84c-5.117 5.18-13.299 5.29-18.604.425l-8.888 8.981c9.157 8.749 23.225 9.658 33.401 2.046l.507-.418-6.416-11.035Z" fill="#FF0"/></svg>